<?xml version="1.0" encoding="UTF-8"?>
<svg width="189px" height="32px" viewBox="0 0 189 32" version="1.1" xmlns="http://www.w3.org/2000/svg" xmlns:xlink="http://www.w3.org/1999/xlink">
    <!-- Generator: Sketch 64 (93537) - https://sketch.com -->
    <title>icon-review-stars</title>
    <desc>Created with Sketch.</desc>
    <g id="Page-1" stroke="none" stroke-width="1" fill="none" fill-rule="evenodd">
        <g id="Desktop-HD" transform="translate(-615.000000, -630.000000)" fill-rule="nonzero">
            <g id="Group-7" transform="translate(0.000000, 80.000000)">
                <g id="Group-32" transform="translate(530.000000, 550.000000)">
                    <g id="icon-review-stars" transform="translate(85.000000, 0.000000)">
                        <g id="Group_11">
                            <rect id="Rectangle_35" fill="#00CB00" x="0" y="0" width="31.8987342" height="31.8987342" rx="10"></rect>
                            <path d="M14.9427342,8.31782278 L12.8506329,12.5598987 L8.16926582,13.243443 C7.7831726,13.3000174 7.46261686,13.5707555 7.34224044,13.9419403 C7.22186402,14.3131251 7.32251761,14.7204628 7.60192405,14.9928608 L10.9886582,18.2921013 L10.1889114,22.9538734 C10.1232907,23.3381464 10.2813644,23.7263741 10.5967472,23.9555148 C10.91213,24.1846556 11.3302036,24.2150267 11.6753924,24.0338734 L15.8632405,21.8328608 L20.0510886,24.0338734 C20.3961666,24.2136072 20.8132445,24.1825365 21.1278823,23.9536563 C21.44252,23.7247762 21.6004995,23.3375271 21.5357468,22.9538734 L20.736,18.2921013 L24.1227342,14.9928608 C24.4021406,14.7204628 24.5027942,14.3131251 24.3824178,13.9419403 C24.2620414,13.5707555 23.9414856,13.3000174 23.5553924,13.243443 L18.8740253,12.5598987 L16.7819241,8.31782278 C16.6087764,7.9682675 16.2524176,7.74710427 15.8623291,7.74710427 C15.4722407,7.74710427 15.1158818,7.9682675 14.9427342,8.31782278 Z" id="Icon_awesome-star" fill="#FFFFFF"></path>
                        </g>
                        <g id="Group_12" transform="translate(39.189873, 0.000000)">
                            <rect id="Rectangle_36" fill="#00CB00" x="0" y="0" width="31.8987342" height="31.8987342" rx="10"></rect>
                            <path d="M14.9427342,8.31782278 L12.8506329,12.5598987 L8.16926582,13.243443 C7.7831726,13.3000174 7.46261686,13.5707555 7.34224044,13.9419403 C7.22186402,14.3131251 7.32251761,14.7204628 7.60192405,14.9928608 L10.9886582,18.2921013 L10.1889114,22.9538734 C10.1232907,23.3381464 10.2813644,23.7263741 10.5967472,23.9555148 C10.91213,24.1846556 11.3302036,24.2150267 11.6753924,24.0338734 L15.8632405,21.8328608 L20.0510886,24.0338734 C20.3961666,24.2136072 20.8132445,24.1825365 21.1278823,23.9536563 C21.44252,23.7247762 21.6004995,23.3375271 21.5357468,22.9538734 L20.736,18.2921013 L24.1227342,14.9928608 C24.4021406,14.7204628 24.5027942,14.3131251 24.3824178,13.9419403 C24.2620414,13.5707555 23.9414856,13.3000174 23.5553924,13.243443 L18.8740253,12.5598987 L16.7819241,8.31782278 C16.6087764,7.9682675 16.2524176,7.74710427 15.8623291,7.74710427 C15.4722407,7.74710427 15.1158818,7.9682675 14.9427342,8.31782278 Z" id="Icon_awesome-star-2" fill="#FFFFFF"></path>
                        </g>
                        <g id="Group_13" transform="translate(78.379747, 0.000000)">
                            <rect id="Rectangle_36-2" fill="#00CB00" x="0" y="0" width="31.8987342" height="31.8987342" rx="10"></rect>
                            <path d="M14.9427342,8.31782278 L12.8506329,12.5598987 L8.16926582,13.243443 C7.7831726,13.3000174 7.46261686,13.5707555 7.34224044,13.9419403 C7.22186402,14.3131251 7.32251761,14.7204628 7.60192405,14.9928608 L10.9886582,18.2921013 L10.1889114,22.9538734 C10.1232907,23.3381464 10.2813644,23.7263741 10.5967472,23.9555148 C10.91213,24.1846556 11.3302036,24.2150267 11.6753924,24.0338734 L15.8632405,21.8328608 L20.0510886,24.0338734 C20.3961666,24.2136072 20.8132445,24.1825365 21.1278823,23.9536563 C21.44252,23.7247762 21.6004995,23.3375271 21.5357468,22.9538734 L20.736,18.2921013 L24.1227342,14.9928608 C24.4021406,14.7204628 24.5027942,14.3131251 24.3824178,13.9419403 C24.2620414,13.5707555 23.9414856,13.3000174 23.5553924,13.243443 L18.8740253,12.5598987 L16.7819241,8.31782278 C16.6087764,7.9682675 16.2524176,7.74710427 15.8623291,7.74710427 C15.4722407,7.74710427 15.1158818,7.9682675 14.9427342,8.31782278 Z" id="Icon_awesome-star-3" fill="#FFFFFF"></path>
                        </g>
                        <g id="Group_14" transform="translate(117.569620, 0.000000)">
                            <rect id="Rectangle_36-3" fill="#00CB00" x="0" y="0" width="31.8987342" height="31.8987342" rx="10"></rect>
                            <path d="M14.9427342,8.31782278 L12.8506329,12.5598987 L8.16926582,13.243443 C7.7831726,13.3000174 7.46261686,13.5707555 7.34224044,13.9419403 C7.22186402,14.3131251 7.32251761,14.7204628 7.60192405,14.9928608 L10.9886582,18.2921013 L10.1889114,22.9538734 C10.1232907,23.3381464 10.2813644,23.7263741 10.5967472,23.9555148 C10.91213,24.1846556 11.3302036,24.2150267 11.6753924,24.0338734 L15.8632405,21.8328608 L20.0510886,24.0338734 C20.3961666,24.2136072 20.8132445,24.1825365 21.1278823,23.9536563 C21.44252,23.7247762 21.6004995,23.3375271 21.5357468,22.9538734 L20.736,18.2921013 L24.1227342,14.9928608 C24.4021406,14.7204628 24.5027942,14.3131251 24.3824178,13.9419403 C24.2620414,13.5707555 23.9414856,13.3000174 23.5553924,13.243443 L18.8740253,12.5598987 L16.7819241,8.31782278 C16.6087764,7.9682675 16.2524176,7.74710427 15.8623291,7.74710427 C15.4722407,7.74710427 15.1158818,7.9682675 14.9427342,8.31782278 Z" id="Icon_awesome-star-4" fill="#FFFFFF"></path>
                        </g>
                        <g id="Group_15" transform="translate(156.759494, 0.000000)">
                            <rect id="Rectangle_36-4" fill="#00CB00" x="0" y="0" width="31.8987342" height="31.8987342" rx="10"></rect>
                            <path d="M14.9427342,8.31782278 L12.8506329,12.5598987 L8.16926582,13.243443 C7.7831726,13.3000174 7.46261686,13.5707555 7.34224044,13.9419403 C7.22186402,14.3131251 7.32251761,14.7204628 7.60192405,14.9928608 L10.9886582,18.2921013 L10.1889114,22.9538734 C10.1232907,23.3381464 10.2813644,23.7263741 10.5967472,23.9555148 C10.91213,24.1846556 11.3302036,24.2150267 11.6753924,24.0338734 L15.8632405,21.8328608 L20.0510886,24.0338734 C20.3961666,24.2136072 20.8132445,24.1825365 21.1278823,23.9536563 C21.44252,23.7247762 21.6004995,23.3375271 21.5357468,22.9538734 L20.736,18.2921013 L24.1227342,14.9928608 C24.4021406,14.7204628 24.5027942,14.3131251 24.3824178,13.9419403 C24.2620414,13.5707555 23.9414856,13.3000174 23.5553924,13.243443 L18.8740253,12.5598987 L16.7819241,8.31782278 C16.6087764,7.9682675 16.2524176,7.74710427 15.8623291,7.74710427 C15.4722407,7.74710427 15.1158818,7.9682675 14.9427342,8.31782278 Z" id="Icon_awesome-star-5" fill="#FFFFFF"></path>
                        </g>
                    </g>
                </g>
            </g>
        </g>
    </g>
</svg>