<?xml version="1.0" encoding="UTF-8"?>
<svg width="76px" height="76px" viewBox="0 0 76 76" version="1.1" xmlns="http://www.w3.org/2000/svg" xmlns:xlink="http://www.w3.org/1999/xlink">
    <!-- Generator: Sketch 64 (93537) - https://sketch.com -->
    <title>icon-fanbuilder</title>
    <desc>Created with Sketch.</desc>
    <defs>
        <linearGradient x1="50%" y1="0%" x2="50%" y2="100%" id="linearGradient-1">
            <stop stop-color="#FEFEFE" offset="0%"></stop>
            <stop stop-color="#F7F7F7" offset="100%"></stop>
        </linearGradient>
        <circle id="path-2" cx="32" cy="32" r="32"></circle>
        <filter x="-16.4%" y="-11.7%" width="132.8%" height="132.8%" filterUnits="objectBoundingBox" id="filter-3">
            <feOffset dx="0" dy="3" in="SourceAlpha" result="shadowOffsetOuter1"></feOffset>
            <feGaussianBlur stdDeviation="3" in="shadowOffsetOuter1" result="shadowBlurOuter1"></feGaussianBlur>
            <feComposite in="shadowBlurOuter1" in2="SourceAlpha" operator="out" result="shadowBlurOuter1"></feComposite>
            <feColorMatrix values="0 0 0 0 0.360784314   0 0 0 0 0.341176471   0 0 0 0 0.482352941  0 0 0 0.1 0" type="matrix" in="shadowBlurOuter1"></feColorMatrix>
        </filter>
    </defs>
    <g id="Page-1" stroke="none" stroke-width="1" fill="none" fill-rule="evenodd">
        <g id="Desktop-HD" transform="translate(-682.000000, -157.000000)">
            <g id="Group-7" transform="translate(0.000000, 80.000000)">
                <g id="Group-6" transform="translate(355.000000, 80.000000)">
                    <g id="Group-3">
                        <g id="icon-fanbuilder" transform="translate(333.000000, 0.000000)">
                            <g id="Oval">
                                <use fill="black" fill-opacity="1" filter="url(#filter-3)" xlink:href="#path-2"></use>
                                <circle stroke="#F9F9F9" stroke-width="2" stroke-linejoin="square" fill="url(#linearGradient-1)" fill-rule="evenodd" cx="32" cy="32" r="31"></circle>
                            </g>
                            <g id="users-crown" transform="translate(12.000000, 18.000000)" fill="#6A00FF" fill-rule="nonzero">
                                <path d="M20,14.1935484 C23.31375,14.1935484 26,11.4701613 26,8.11059908 L26,7.09677419 L14,7.09677419 L14,8.11059908 C14,11.4701613 16.68625,14.1935484 20,14.1935484 Z M24.8,16.2211982 L24.280625,16.2211982 C22.978125,16.8523041 21.5375,17.235023 20,17.235023 C18.4625,17.235023 17.0225,16.8523041 15.719375,16.2211982 L15.2,16.2211982 C11.22375,16.2211982 8,19.4895161 8,23.5207373 L8,25.3456221 C8,27.0254032 9.343125,28.3870968 11,28.3870968 L29,28.3870968 C30.656875,28.3870968 32,27.0254032 32,25.3456221 L32,23.5207373 C32,19.4895161 28.77625,16.2211982 24.8,16.2211982 Z M24.5478608,0.73610744 L23.4521392,1.29154233 C23.1679281,1.43561249 22.8320719,1.43561249 22.5478608,1.29154233 L20.4521392,0.229194998 C20.1679281,0.0851248336 19.8320719,0.0851248336 19.5478608,0.229194998 L17.4521392,1.29154233 C17.1679281,1.43561249 16.8320719,1.43561249 16.5478608,1.29154233 L15.4521392,0.73610744 C14.9595303,0.486397843 14.3577622,0.68330666 14.1080526,1.17591559 C14.0370177,1.31604814 14,1.47094628 14,1.62805482 L14,4.06912442 C14,4.62140917 14.4477153,5.06912442 15,5.06912442 L25,5.06912442 C25.5522847,5.06912442 26,4.62140917 26,4.06912442 L26,1.62805482 C26,1.07577007 25.5522847,0.628054817 25,0.628054817 C24.8428915,0.628054817 24.6879933,0.66507251 24.5478608,0.73610744 Z" id="Shape"></path>
                                <path d="M6,12.1658986 C8.209375,12.1658986 10,10.3505184 10,8.11059908 C10,5.87067972 8.209375,4.05529954 6,4.05529954 C3.790625,4.05529954 2,5.87067972 2,8.11059908 C2,10.3505184 3.790625,12.1658986 6,12.1658986 Z" id="Path" opacity="0.300000012"></path>
                                <path d="M10.816875,15.3714862 C10.09375,14.6440668 9.099375,14.1935484 8,14.1935484 L4,14.1935484 C1.790625,14.1935484 0,16.0089286 0,18.2488479 L0,20.2764977 C0,21.3961406 0.895625,22.3041475 2,22.3041475 L6.12125,22.3041475 C6.513125,19.3019585 8.299375,16.7699309 10.816875,15.3714862 L10.816875,15.3714862 Z" id="Path" opacity="0.300000012"></path>
                                <path d="M36,14.1935484 L32,14.1935484 C30.900625,14.1935484 29.90625,14.6440668 29.183125,15.3714862 C31.7,16.7692972 33.486875,19.3019585 33.87875,22.3041475 L38,22.3041475 C39.104375,22.3041475 40,21.3961406 40,20.2764977 L40,18.2488479 C40,16.0089286 38.209375,14.1935484 36,14.1935484 Z" id="Path" opacity="0.300000012"></path>
                                <path d="M34,12.1658986 C36.209375,12.1658986 38,10.3505184 38,8.11059908 C38,5.87067972 36.209375,4.05529954 34,4.05529954 C31.790625,4.05529954 30,5.87067972 30,8.11059908 C30,10.3505184 31.790625,12.1658986 34,12.1658986 Z" id="Path" opacity="0.300000012"></path>
                            </g>
                        </g>
                    </g>
                </g>
            </g>
        </g>
    </g>
</svg>