<?xml version="1.0" encoding="UTF-8"?>
<svg width="160px" height="32px" viewBox="0 0 160 32" version="1.1" xmlns="http://www.w3.org/2000/svg" xmlns:xlink="http://www.w3.org/1999/xlink">
    <!-- Generator: Sketch 56.3 (81716) - https://sketch.com -->
    <title>Logo / Default</title>
    <desc>Created with Sketch.</desc>
    <defs>
        <linearGradient x1="50%" y1="-2.48949813e-15%" x2="50%" y2="100%" id="linearGradient-1">
            <stop stop-color="#F76606" offset="0%"></stop>
            <stop stop-color="#EA3546" offset="100%"></stop>
        </linearGradient>
        <linearGradient x1="50%" y1="-2.48949813e-15%" x2="50%" y2="100%" id="linearGradient-2">
            <stop stop-color="#F76606" offset="0%"></stop>
            <stop stop-color="#ED255E" offset="100%"></stop>
        </linearGradient>
    </defs>
    <g id="Logo-/-Default" stroke="none" stroke-width="1" fill="none" fill-rule="evenodd">
        <g id="Group-22" transform="translate(0.000000, 0.000000)">
            <path d="M32.6357531,20.8919045 C32.6980412,21.9502749 33.4451029,22.9775671 35.0638025,22.9775671 C36.2778272,22.9775671 36.8692346,22.3238716 36.8692346,21.6389663 C36.8692346,21.078637 36.4957695,20.6116741 35.3439012,20.3626535 L33.569679,19.9579786 C30.2698601,19.2419951 28.9623374,17.3742749 28.9623374,15.1951144 C28.9623374,12.3625218 31.4528066,10.0587852 34.9081481,10.0587852 C39.3907819,10.0587852 40.9471934,12.860563 41.1029794,14.6659951 L37.1806749,15.3819786 C37.0560988,14.3546864 36.4024033,13.4830486 34.9704362,13.4830486 C34.0677202,13.4830486 33.2894486,14.0122996 33.2894486,14.8216494 C33.2894486,15.4753449 33.8185679,15.8489416 34.5034733,15.973386 L36.5580576,16.3781926 C39.7643786,17.0318881 41.3207901,18.9618963 41.3207901,21.2342914 C41.3207901,23.8802831 39.2974156,26.4639868 35.1571687,26.4639868 C30.30107,26.4639868 28.7445267,23.3199539 28.6200823,21.6078881 L32.6357531,20.8919045 Z" id="Fill-1" fill="#100F26"></path>
            <polygon id="Fill-3" fill="#100F26" points="52.5052247 17.0318222 58.6689778 25.9970897 52.8788214 25.9970897 49.2367473 20.5494519 47.711414 22.1992296 47.711414 25.9970897 42.979628 25.9970897 42.979628 3.45947654 47.711414 3.45947654 47.711414 15.7242996 52.4118584 10.525814 58.54427 10.525814"></polygon>
            <polygon id="Fill-5" fill="#100F26" points="73.9527572 10.5257745 76.9723457 19.7088527 79.5560494 10.5257745 84.1942058 10.5257745 79.4003951 25.9970502 74.6998189 25.9970502 71.3379753 16.0044905 68.0381564 25.9970502 63.244214 25.9970502 58.3881152 10.5257745 63.3065021 10.5257745 65.8902058 19.6777745 68.9408724 10.5257745"></polygon>
            <path d="M95.1513086,16.4092576 C95.0890206,15.2263111 94.2796708,13.7944757 92.0383539,13.7944757 C90.0460576,13.7944757 89.0499753,15.2573893 88.9564774,16.4092576 L95.1513086,16.4092576 Z M99.4470782,21.5455868 C98.7000165,24.2226568 96.2407572,26.4641053 92.3184527,26.4641053 C88.053893,26.4641053 84.2560329,23.4134387 84.2560329,18.2146897 C84.2560329,13.2340148 87.9603951,10.058772 91.9760658,10.058772 C96.7700082,10.058772 99.7273086,13.0160724 99.7273086,17.996879 C99.7273086,18.6505745 99.6650206,19.366558 99.6339424,19.4599243 L88.8631111,19.4599243 C88.9564774,21.2030683 90.5442305,22.4483029 92.3807407,22.4483029 C94.0929383,22.4483029 95.0579424,21.6389531 95.4936955,20.4249284 L99.4470782,21.5455868 Z" id="Fill-7" fill="#100F26"></path>
            <path d="M111.773742,16.4092576 C111.711453,15.2263111 110.902104,13.7944757 108.660787,13.7944757 C106.668491,13.7944757 105.672408,15.2573893 105.57891,16.4092576 L111.773742,16.4092576 Z M116.069511,21.5455868 C115.322449,24.2226568 112.86319,26.4641053 108.940886,26.4641053 C104.676326,26.4641053 100.878466,23.4134387 100.878466,18.2146897 C100.878466,13.2340148 104.582828,10.058772 108.598499,10.058772 C113.392441,10.058772 116.349742,13.0160724 116.349742,17.996879 C116.349742,18.6505745 116.287453,19.366558 116.256375,19.4599243 L105.485544,19.4599243 C105.57891,21.2030683 107.166663,22.4483029 109.003174,22.4483029 C110.715371,22.4483029 111.680375,21.6389531 112.116128,20.4249284 L116.069511,21.5455868 Z" id="Fill-9" fill="#100F26"></path>
            <polygon id="Fill-11" fill="#100F26" points="117.656593 25.9971029 117.656593 21.8257778 124.474041 14.5725761 117.843457 14.5725761 117.843457 10.5258272 130.513086 10.5258272 130.513086 14.4169218 123.384461 21.919144 130.637531 21.919144 130.637531 25.9971029"></polygon>
            <path d="M142.684622,16.4092576 C142.622334,15.2263111 141.812984,13.7944757 139.571667,13.7944757 C137.579371,13.7944757 136.583289,15.2573893 136.489791,16.4092576 L142.684622,16.4092576 Z M146.980392,21.5455868 C146.23333,24.2226568 143.774071,26.4641053 139.851766,26.4641053 C135.587207,26.4641053 131.789347,23.4134387 131.789347,18.2146897 C131.789347,13.2340148 135.493709,10.058772 139.509379,10.058772 C144.303322,10.058772 147.260622,13.0160724 147.260622,17.996879 C147.260622,18.6505745 147.198334,19.366558 147.167256,19.4599243 L136.396425,19.4599243 C136.489791,21.2030683 138.077544,22.4483029 139.914054,22.4483029 C141.626252,22.4483029 142.591256,21.6389531 143.027141,20.4249284 L146.980392,21.5455868 Z" id="Fill-13" fill="#100F26"></path>
            <path d="M159.369422,15.1951407 C158.840171,15.0706963 158.34213,15.0394864 157.875167,15.0394864 C155.976237,15.0394864 154.264171,16.1601449 154.264171,19.2418897 L154.264171,25.9970502 L149.532517,25.9970502 L149.532517,10.5257745 L154.108517,10.5257745 L154.108517,12.611437 C154.917867,10.868293 156.879085,10.3701202 158.124188,10.3701202 C158.591151,10.3701202 159.058114,10.4324082 159.369422,10.5257745 L159.369422,15.1951407 Z" id="Fill-15" fill="#100F26"></path>
            <g id="Group-37" transform="translate(0.000000, 0.030420)">
                <g id="Group" transform="translate(-0.000001, 0.101337)">
                    <path d="M21.9138385,17.3035552 L13.1067274,30.3401971 C11.324999,32.9777609 7.20503189,31.7165922 7.20503189,28.5335799 L7.20503189,15.4969379 C7.20503189,13.7144194 8.650036,12.2695469 10.4324228,12.2695469 L19.2395339,12.2695469 C21.8261348,12.2695469 23.3618714,15.1602136 21.9138385,17.3035552" id="Fill-18" fill="url(#linearGradient-1)"></path>
                    <path d="M0.558552877,14.4633906 L9.36566399,1.42674858 C11.1473924,-1.21081521 15.2673595,0.0503535189 15.2673595,3.23336586 L15.2673595,16.2700078 C15.2673595,18.0525264 13.8223553,19.4973988 12.0399685,19.4973988 L3.2328574,19.4973988 C0.64625658,19.4973988 -0.889480045,16.6067321 0.558552877,14.4633906" id="Fill-19" fill="url(#linearGradient-2)"></path>
                </g>
                <g id="Group-21" transform="translate(7.000000, 12.000000)" fill="#F76606">
                    <path d="M0.205030453,7.5987358 L0.205030453,3.5982749 C0.205030453,1.81575638 1.65003457,0.370883951 3.4324214,0.370883951 L8.26735802,0.370883951 L8.26735802,4.37134486 C8.26735802,6.15386337 6.82235391,7.5987358 5.03996708,7.5987358 L0.205030453,7.5987358 Z" id="Combined-Shape" style="mix-blend-mode: multiply;"></path>
                </g>
            </g>
        </g>
    </g>
</svg>