<?xml version="1.0" encoding="UTF-8"?>
<svg width="200px" height="200px" viewBox="0 0 200 200" version="1.1" xmlns="http://www.w3.org/2000/svg" xmlns:xlink="http://www.w3.org/1999/xlink">
    <!-- Generator: Sketch 64 (93537) - https://sketch.com -->
    <title>iconEligibilityCheck</title>
    <desc>Created with Sketch.</desc>
    <g id="iconEligibilityCheck" stroke="none" stroke-width="1" fill="none" fill-rule="evenodd">
        <circle id="Oval" fill="#027AFF" cx="100" cy="100" r="100"></circle>
        <g id="Group" transform="translate(27.000000, 27.000000)" fill="#026EE6">
            <circle id="Oval" cx="73" cy="73" r="73"></circle>
        </g>
        <g id="sm-clipboard-check" transform="translate(65.000000, 54.000000)" fill="#FFFFFF">
            <path d="M28.9719626,0 C25.7718355,0 23.1775701,2.59426542 23.1775701,5.79439252 C23.1775701,8.99451963 25.7718355,11.588785 28.9719626,11.588785 L40.5607477,11.588785 C43.7609907,11.588785 46.3551402,8.99451963 46.3551402,5.79439252 C46.3551402,2.59426542 43.7609907,0 40.5607477,0 L28.9719626,0 Z" id="Path" fill-rule="nonzero"></path>
            <path d="M0,17.3831776 C0,10.9828654 5.1884729,5.79439252 11.588785,5.79439252 C11.588785,15.3948318 19.3715234,23.1775701 28.9719626,23.1775701 L40.5607477,23.1775701 C50.1614766,23.1775701 57.9439252,15.3948318 57.9439252,5.79439252 C64.3444112,5.79439252 69.5327103,10.9828654 69.5327103,17.3831776 L69.5327103,81.1214953 C69.5327103,87.5219813 64.3444112,92.7102804 57.9439252,92.7102804 L11.588785,92.7102804 C5.1884729,92.7102804 0,87.5219813 0,81.1214953 L0,17.3831776 Z M56.2467477,50.4523551 C58.5094579,48.1896449 58.5094579,44.5207514 56.2467477,42.2578673 C53.9840374,39.9950411 50.315028,39.9950411 48.0523178,42.2578673 L28.9719626,61.3382804 L21.4804505,53.8467103 C19.2175664,51.584 15.5487888,51.584 13.2859047,53.8467103 C11.0230785,56.1094206 11.0230785,59.7784299 13.2859047,62.0411402 L24.8746897,73.6299252 C27.1375738,75.8926355 30.8063514,75.8926355 33.0692355,73.6299252 L56.2467477,50.4523551 Z" id="Shape"></path>
        </g>
    </g>
</svg>