<svg xmlns="http://www.w3.org/2000/svg" viewBox="0 0 150 150"><defs><style>.a{fill:#a340f2;}.b{fill:#8b36ce;}.c{fill:#fff;}</style></defs><g transform="translate(-262 -624)"><circle class="a" cx="75" cy="75" r="75" transform="translate(262 624)"/><circle class="b" cx="51" cy="51" r="51" transform="translate(286 648)"/><path class="c" d="M73.834,44.315l-5.016-2.9a22.679,22.679,0,0,0,0-8.265l5.016-2.9a1.423,1.423,0,0,0,.648-1.648,29.323,29.323,0,0,0-6.44-11.138A1.417,1.417,0,0,0,66.3,17.2l-5.016,2.9a22.22,22.22,0,0,0-7.158-4.133V10.183a1.411,1.411,0,0,0-1.107-1.378,29.6,29.6,0,0,0-12.857,0,1.411,1.411,0,0,0-1.107,1.378v5.793A22.921,22.921,0,0,0,31.9,20.108l-5-2.9a1.4,1.4,0,0,0-1.743.271,29.147,29.147,0,0,0-6.44,11.138,1.408,1.408,0,0,0,.648,1.648l5.016,2.9a22.679,22.679,0,0,0,0,8.265l-5.016,2.9a1.423,1.423,0,0,0-.648,1.648,29.323,29.323,0,0,0,6.44,11.138,1.417,1.417,0,0,0,1.743.271l5.016-2.9a22.22,22.22,0,0,0,7.158,4.133v5.793a1.411,1.411,0,0,0,1.107,1.378,29.6,29.6,0,0,0,12.857,0,1.411,1.411,0,0,0,1.107-1.378V58.62a22.921,22.921,0,0,0,7.158-4.133l5.016,2.9a1.4,1.4,0,0,0,1.743-.271,29.147,29.147,0,0,0,6.44-11.138A1.454,1.454,0,0,0,73.834,44.315ZM46.59,46.705a9.419,9.419,0,1,1,9.419-9.419A9.431,9.431,0,0,1,46.59,46.705Z" transform="translate(290.356 661.901)"/></g></svg>