<svg xmlns="http://www.w3.org/2000/svg" viewBox="0 0 150 150"><defs><style>.a{fill:#4fe67a;}.b{fill:#47ce6d;}.c{fill:#fff;}</style></defs><g transform="translate(-697 -624)"><circle class="a" cx="75" cy="75" r="75" transform="translate(697 624)"/><circle class="b" cx="51" cy="51" r="51" transform="translate(721 648)"/><path class="c" d="M48.04,2.042l-7.531,15.27L23.66,19.768a3.692,3.692,0,0,0-2.041,6.3l12.19,11.879-2.883,16.78a3.688,3.688,0,0,0,5.351,3.887L51.35,50.687l15.074,7.923a3.691,3.691,0,0,0,5.351-3.887l-2.883-16.78,12.19-11.879a3.692,3.692,0,0,0-2.041-6.3l-16.85-2.457L54.66,2.042a3.694,3.694,0,0,0-6.62,0Z" transform="translate(720.5 669.013)"/></g></svg>