<svg xmlns="http://www.w3.org/2000/svg" viewBox="0 0 150 150"><defs><style>.a{fill:#ffe766;}.b{fill:#f0d22e;}.c{fill:#fff;}</style></defs><g transform="translate(-262 -288)"><circle class="a" cx="75" cy="75" r="75" transform="translate(262 288)"/><circle class="b" cx="51" cy="51" r="51" transform="translate(286 312)"/><path class="c" d="M37.937,20.511H23.143L28.6,3.871A3.089,3.089,0,0,0,25.63,0H7.17A3.081,3.081,0,0,0,4.119,2.666L.016,33.433A3.082,3.082,0,0,0,3.067,36.92H18.284l-5.91,24.934A3.073,3.073,0,0,0,18.028,64.1L40.59,25.126A3.071,3.071,0,0,0,37.937,20.511Z" transform="translate(316.011 330)"/></g></svg>