<?xml version="1.0" encoding="UTF-8"?>
<svg width="42px" height="42px" viewBox="0 0 42 42" version="1.1" xmlns="http://www.w3.org/2000/svg" xmlns:xlink="http://www.w3.org/1999/xlink">
    <!-- Generator: Sketch 53 (72520) - https://sketchapp.com -->
    <title>instagram-brands</title>
    <desc>Created with Sketch.</desc>
    <g id="Icons" stroke="none" stroke-width="1" fill="none" fill-rule="evenodd">
        <g id="instagram-brands" fill="#CCCCCC" fill-rule="nonzero">
            <path d="M21.0046849,10.2317304 C15.0455103,10.2317304 10.2388176,15.0394957 10.2388176,21 C10.2388176,26.9605043 15.0455103,31.7682696 21.0046849,31.7682696 C26.9638595,31.7682696 31.7705521,26.9605043 31.7705521,21 C31.7705521,15.0394957 26.9638595,10.2317304 21.0046849,10.2317304 Z M21.0046849,28.000781 C17.1537089,28.000781 14.0054657,24.8612072 14.0054657,21 C14.0054657,17.1387928 17.1443391,13.999219 21.0046849,13.999219 C24.8650307,13.999219 28.0039041,17.1387928 28.0039041,21 C28.0039041,24.8612072 24.8556609,28.000781 21.0046849,28.000781 L21.0046849,28.000781 Z M34.7220301,9.79125293 C34.7220301,11.1876604 33.5976576,12.302912 32.2109314,12.302912 C30.8148355,12.302912 29.6998327,11.1782885 29.6998327,9.79125293 C29.6998327,8.40421734 30.8242052,7.27959389 32.2109314,7.27959389 C33.5976576,7.27959389 34.7220301,8.40421734 34.7220301,9.79125293 Z M41.8524261,12.3403994 C41.69314,8.97590093 40.9248187,5.99564878 38.4605689,3.54022091 C36.0056888,1.08479304 33.0261015,0.316300346 29.6623536,0.147606828 C26.1955382,-0.049202276 15.8044618,-0.049202276 12.3376464,0.147606828 C8.98326827,0.306928484 6.00368098,1.07542118 3.53943112,3.53084905 C1.07518126,5.98627692 0.316229782,8.96652906 0.147573898,12.3310276 C-0.0491912995,15.7986165 -0.0491912995,26.1920116 0.147573898,29.6596006 C0.306860011,33.0240991 1.07518126,36.0043512 3.53943112,38.4597791 C6.00368098,40.915207 8.97389849,41.6836997 12.3376464,41.8523932 C15.8044618,42.0492023 26.1955382,42.0492023 29.6623536,41.8523932 C33.0261015,41.6930715 36.0056888,40.9245788 38.4605689,38.4597791 C40.915449,36.0043512 41.6837702,33.0240991 41.8524261,29.6596006 C42.0491913,26.1920116 42.0491913,15.8079884 41.8524261,12.3403994 Z M37.3736754,33.3802298 C36.6428332,35.2171148 35.2279978,36.632266 33.3821528,37.3726431 C30.6180703,38.469151 24.0592303,38.2161107 21.0046849,38.2161107 C17.9501394,38.2161107 11.3819297,38.4597791 8.62721695,37.3726431 C6.79074177,36.6416378 5.3759063,35.2264867 4.63569437,33.3802298 C3.53943112,30.6155305 3.79241495,24.055227 3.79241495,21 C3.79241495,17.944773 3.54880089,11.3750976 4.63569437,8.61977017 C5.36653653,6.78288519 6.781372,5.36773402 8.62721695,4.62735691 C11.3912995,3.53084905 17.9501394,3.78388932 21.0046849,3.78388932 C24.0592303,3.78388932 30.62744,3.54022091 33.3821528,4.62735691 C35.218628,5.35836216 36.6334635,6.77351333 37.3736754,8.61977017 C38.4699387,11.3844695 38.2169548,17.944773 38.2169548,21 C38.2169548,24.055227 38.4699387,30.6249024 37.3736754,33.3802298 Z" id="Shape"></path>
        </g>
    </g>
</svg>