<?xml version="1.0" encoding="UTF-8"?>
<svg width="106px" height="106px" viewBox="0 0 106 106" version="1.1" xmlns="http://www.w3.org/2000/svg" xmlns:xlink="http://www.w3.org/1999/xlink">
    <!-- Generator: Sketch 53 (72520) - https://sketchapp.com -->
    <title>Group 7 Copy 2</title>
    <desc>Created with Sketch.</desc>
    <g id="Icons" stroke="none" stroke-width="1" fill="none" fill-rule="evenodd">
        <g id="Group-7-Copy-2">
            <circle id="Oval" fill="#E12D39" cx="53" cy="53" r="53"></circle>
            <g id="times-solid-(1)" transform="translate(34.000000, 34.000000)" fill="#FFFFFF" fill-rule="nonzero">
                <path d="M26.2027273,19 L37.0057386,8.19698864 C38.3314205,6.87130682 38.3314205,4.72193182 37.0057386,3.39517045 L34.6048295,0.994261364 C33.2791477,-0.331420455 31.1297727,-0.331420455 29.8030114,0.994261364 L19,11.7972727 L8.19698864,0.994261364 C6.87130682,-0.331420455 4.72193182,-0.331420455 3.39517045,0.994261364 L0.994261364,3.39517045 C-0.331420455,4.72085227 -0.331420455,6.87022727 0.994261364,8.19698864 L11.7972727,19 L0.994261364,29.8030114 C-0.331420455,31.1286932 -0.331420455,33.2780682 0.994261364,34.6048295 L3.39517045,37.0057386 C4.72085227,38.3314205 6.87130682,38.3314205 8.19698864,37.0057386 L19,26.2027273 L29.8030114,37.0057386 C31.1286932,38.3314205 33.2791477,38.3314205 34.6048295,37.0057386 L37.0057386,34.6048295 C38.3314205,33.2791477 38.3314205,31.1297727 37.0057386,29.8030114 L26.2027273,19 Z" id="Path"></path>
            </g>
        </g>
    </g>
</svg>