<?xml version="1.0" encoding="UTF-8"?>
<svg version="1.1" viewBox="0 0 20 20" xmlns="http://www.w3.org/2000/svg" xmlns:xlink="http://www.w3.org/1999/xlink">
    <!--Generated by IJSVG (https://github.com/iconjar/IJSVG)-->
    <g fill="#B7BBC3">
        <path d="M11,3c-0.5523,0 -1,0.44772 -1,1c0,0.55228 0.4477,1 1,1h2.5858l-6.29291,6.2929c-0.39052,0.3905 -0.39052,1.0237 0,1.4142c0.39053,0.3905 1.02369,0.3905 1.41422,0l6.29289,-6.29289v2.58579c0,0.55228 0.4477,1 1,1c0.5523,0 1,-0.44772 1,-1v-5c0,-0.55228 -0.4477,-1 -1,-1h-5Z"></path>
        <path d="M5,5c-1.10457,0 -2,0.89543 -2,2v8c0,1.1046 0.89543,2 2,2h8c1.1046,0 2,-0.8954 2,-2v-3c0,-0.5523 -0.4477,-1 -1,-1c-0.5523,0 -1,0.4477 -1,1v3h-8v-8h3c0.55228,0 1,-0.44772 1,-1c0,-0.55228 -0.44772,-1 -1,-1h-3Z"></path>
    </g>
</svg>