<?xml version="1.0" encoding="UTF-8"?>
<svg width="200px" height="200px" viewBox="0 0 200 200" version="1.1" xmlns="http://www.w3.org/2000/svg" xmlns:xlink="http://www.w3.org/1999/xlink">
    <!-- Generator: Sketch 64 (93537) - https://sketch.com -->
    <title>iconResetPassword</title>
    <desc>Created with Sketch.</desc>
    <g id="iconResetPassword" stroke="none" stroke-width="1" fill="none" fill-rule="evenodd">
        <circle id="Oval" fill="#FF9230" cx="100" cy="100" r="100"></circle>
        <g id="Group" transform="translate(27.000000, 27.000000)">
            <circle id="Oval" fill="#E6832B" cx="73" cy="73" r="73"></circle>
            <g id="sm-lock-closed" transform="translate(33.000000, 27.000000)" fill="#FFFFFF">
                <path d="M11.4285714,40 L11.4285714,28.5714286 C11.4285714,12.7918857 24.2204571,0 40,0 C55.7794286,0 68.5714286,12.7918857 68.5714286,28.5714286 L68.5714286,40 C74.8834286,40 80,45.1167429 80,51.4285714 L80,80 C80,86.312 74.8834286,91.4285714 68.5714286,91.4285714 L11.4285714,91.4285714 C5.11674286,91.4285714 0,86.312 0,80 L0,51.4285714 C0,45.1167429 5.11674286,40 11.4285714,40 Z M57.1428571,28.5714286 L57.1428571,40 L22.8571429,40 L22.8571429,28.5714286 C22.8571429,19.1037143 30.5322857,11.4285714 40,11.4285714 C49.468,11.4285714 57.1428571,19.1037143 57.1428571,28.5714286 Z" id="Shape"></path>
            </g>
        </g>
    </g>
</svg>