<?xml version="1.0" encoding="UTF-8"?>
<svg width="29px" height="20px" viewBox="0 0 29 20" version="1.1" xmlns="http://www.w3.org/2000/svg" xmlns:xlink="http://www.w3.org/1999/xlink">
    <!-- Generator: Sketch 64 (93537) - https://sketch.com -->
    <title>Artboard</title>
    <desc>Created with Sketch.</desc>
    <g id="Artboard" stroke="none" stroke-width="1" fill="none" fill-rule="evenodd">
        <g id="Icon-white-Visa" transform="translate(4.000000, 6.000000)" fill="#0742A6" fill-rule="nonzero">
            <g id="Visa_Inc._logo" transform="translate(0.782500, 0.956250)">
                <polygon id="polygon9" points="8.270625 5.975625 6.731875 5.975625 7.694375 0.179375 9.233125 0.179375"></polygon>
                <path d="M13.849375,0.320625 C13.4081697,0.155264264 12.9405456,0.0716086719 12.469375,0.0736712881 C10.949375,0.0736712881 9.879375,0.863125 9.8725,1.99125 C9.86,2.82375 10.63875,3.28625 11.22125,3.56375 C11.816875,3.8475 12.019375,4.0325 12.019375,4.285625 C12.013125,4.67375 11.538125,4.853125 11.095,4.853125 C10.5960728,4.86692717 10.1010722,4.76128419 9.65125,4.545 L9.44875,4.4525 L9.233125,5.75375 C9.78152469,5.96071461 10.3632279,6.06536188 10.949375,6.06261207 C12.564375,6.06261207 13.615625,5.285625 13.628125,4.083125 C13.634375,3.423125 13.223125,2.9175 12.33625,2.504375 C11.798125,2.239375 11.468125,2.060625 11.468125,1.78875 C11.474375,1.541875 11.746875,1.28875 12.354375,1.28875 C12.748136,1.27738668 13.1395453,1.35315019 13.500625,1.510625 L13.64,1.573125 L13.849375,0.323125 L13.849375,0.320625 Z" id="path11"></path>
                <path d="M15.895,3.921875 C16.02,3.58875 16.509375,2.3 16.509375,2.3 C16.503125,2.3125 16.634375,1.960625 16.711875,1.745 L16.819375,2.245 C16.819375,2.245 17.110625,3.6325 17.174375,3.9225 L15.895,3.921875 Z M17.795,0.179375 L16.6075,0.179375 C16.2606923,0.136125808 15.9289882,0.334581277 15.803125,0.660625 L13.516875,5.973125 L15.131875,5.973125 L15.455,5.10375 L17.43125,5.10375 C17.475625,5.3075 17.615,5.973125 17.615,5.973125 L19.04,5.973125 L17.795,0.179375 Z" id="path13"></path>
                <path d="M5.44625,0.179375 L3.9375,4.131875 L3.774375,3.33 C3.39345821,2.28358147 2.63566784,1.41702589 1.649375,0.9 L3.026875,5.969375 L4.651875,5.969375 L7.07375,0.179375 L5.44625,0.179375 Z" id="path15"></path>
                <path d="M2.539375,0.179375 L0.0625,0.179375 L0.038125,0.29625 C1.71145449,0.621736336 3.11256799,1.759643 3.774375,3.330625 L3.23625,0.66625 C3.16262243,0.349643847 2.86198734,0.139603722 2.539375,0.179375 Z" id="path17"></path>
            </g>
        </g>
    </g>
</svg>