<?xml version="1.0" encoding="UTF-8"?>
<svg width="29px" height="20px" viewBox="0 0 29 20" version="1.1" xmlns="http://www.w3.org/2000/svg" xmlns:xlink="http://www.w3.org/1999/xlink">
    <!-- Generator: Sketch 64 (93537) - https://sketch.com -->
    <title>Artboard</title>
    <desc>Created with Sketch.</desc>
    <g id="Artboard" stroke="none" stroke-width="1" fill="none" fill-rule="evenodd">
        <g id="Icon-white-Mastercard-" fill-rule="nonzero">
            <g id="Group" opacity="0" transform="translate(0.043000, 0.957000)" fill="#FFFFFF">
                <rect id="Rectangle" x="0" y="0" width="27.698" height="18.066"></rect>
            </g>
            <rect id="Rectangle-2" fill="#FF5F00" x="10.24" y="4.105" width="7.306" height="11.769"></rect>
            <path d="M10.992,9.99 C10.9947207,7.68554483 12.0658604,5.51260855 13.892,4.107 C10.7721167,1.69561157 6.33173323,2.04469967 3.627,4.914 C0.942438914,7.76673499 0.942438914,12.216265 3.627,15.069 C6.33173323,17.9383003 10.7721167,18.2873884 13.892,15.876 C12.0650263,14.4697479 10.993791,12.2955096 10.992,9.99 L10.992,9.99 Z" id="Path" fill="#EB001B"></path>
            <path d="M25.529,15.186 L25.529,14.486 L25.696,14.486 L25.696,14.337 L25.296,14.337 L25.296,14.482 L25.453,14.482 L25.453,15.182 L25.529,15.186 Z M26.299,15.186 L26.299,14.337 L26.179,14.337 L26.039,14.943 L25.899,14.337 L25.779,14.337 L25.779,15.185 L25.866,15.185 L25.866,14.543 L25.996,15.095 L26.086,15.095 L26.216,14.543 L26.216,15.185 L26.299,15.186 Z" id="Shape" fill="#F79E1B"></path>
            <path d="M26.17,9.99 C26.1610958,12.8696786 24.499014,15.4882451 21.897,16.722 C19.2820362,17.9741834 16.1846648,17.646149 13.89,15.874 C15.7180692,14.4693602 16.7895068,12.2948959 16.7895068,9.9895 C16.7895068,7.68410415 15.7180692,5.50963976 13.89,4.105 C16.1846648,2.33285097 19.2820362,2.00481663 21.897,3.257 C24.499014,4.4907549 26.1610958,7.10932143 26.17,9.989 L26.17,9.99 Z" id="Path-2" fill="#F79E1B"></path>
        </g>
    </g>
</svg>