<svg xmlns="http://www.w3.org/2000/svg" width="186" height="40" viewBox="0 0 186 40"><g transform="translate(-323.195 -427)"><rect width="186" height="40" rx="5" transform="translate(323.195 427)" fill="#fff"/><g transform="translate(-8)"><path d="M-66.912.192a5.841,5.841,0,0,1-2.04-.376,5.327,5.327,0,0,1-1.816-1.128l1.344-1.616a5.081,5.081,0,0,0,1.24.784,3.257,3.257,0,0,0,1.336.3,1.813,1.813,0,0,0,1.1-.272.874.874,0,0,0,.36-.736.8.8,0,0,0-.1-.416.992.992,0,0,0-.3-.312,2.855,2.855,0,0,0-.48-.256L-66.9-4.1l-1.36-.576a4.051,4.051,0,0,1-.776-.416,3.427,3.427,0,0,1-.672-.6,2.711,2.711,0,0,1-.472-.8,2.849,2.849,0,0,1-.176-1.032,2.762,2.762,0,0,1,.272-1.208,3,3,0,0,1,.768-.992,3.667,3.667,0,0,1,1.176-.664,4.468,4.468,0,0,1,1.5-.24,4.848,4.848,0,0,1,1.8.352,4.558,4.558,0,0,1,1.56,1.024l-1.2,1.488A4.541,4.541,0,0,0-65.5-8.376a2.9,2.9,0,0,0-1.136-.216,1.679,1.679,0,0,0-.968.248.8.8,0,0,0-.36.7.684.684,0,0,0,.12.408,1.172,1.172,0,0,0,.336.3,3.406,3.406,0,0,0,.5.256q.288.12.624.264l1.344.544a3.672,3.672,0,0,1,1.512,1.056,2.71,2.71,0,0,1,.552,1.776A2.976,2.976,0,0,1-63.24-1.8a2.977,2.977,0,0,1-.768,1.024,3.826,3.826,0,0,1-1.24.7A4.907,4.907,0,0,1-66.912.192ZM-61.392,0V-7.936h2.352V0Zm1.168-9.1a1.408,1.408,0,0,1-.976-.344,1.137,1.137,0,0,1-.384-.888,1.113,1.113,0,0,1,.384-.88,1.428,1.428,0,0,1,.976-.336,1.421,1.421,0,0,1,.984.336,1.124,1.124,0,0,1,.376.88,1.149,1.149,0,0,1-.376.888A1.4,1.4,0,0,1-60.224-9.1Zm6.08,12.48a6.653,6.653,0,0,1-1.3-.12A3.9,3.9,0,0,1-56.5,2.9a1.9,1.9,0,0,1-.712-.624,1.606,1.606,0,0,1-.256-.912,1.856,1.856,0,0,1,1.136-1.6V-.3a1.78,1.78,0,0,1-.528-.528,1.471,1.471,0,0,1-.208-.816,1.484,1.484,0,0,1,.256-.824,2.446,2.446,0,0,1,.64-.664V-3.2a2.683,2.683,0,0,1-.744-.824,2.328,2.328,0,0,1-.328-1.24,2.742,2.742,0,0,1,.272-1.256,2.657,2.657,0,0,1,.728-.9A3.1,3.1,0,0,1-55.2-7.952a4.3,4.3,0,0,1,1.232-.176,3.6,3.6,0,0,1,1.232.192h2.9v1.712H-51.1a1.6,1.6,0,0,1,.184.448,2.309,2.309,0,0,1,.072.592,2.748,2.748,0,0,1-.24,1.192,2.266,2.266,0,0,1-.664.832,2.877,2.877,0,0,1-.992.488,4.5,4.5,0,0,1-1.224.16,3.121,3.121,0,0,1-.96-.16.8.8,0,0,0-.224.256.754.754,0,0,0-.064.336.477.477,0,0,0,.264.448,2.133,2.133,0,0,0,.936.144h1.28a4.369,4.369,0,0,1,2.248.472A1.667,1.667,0,0,1-49.712.528a2.182,2.182,0,0,1-.312,1.144,2.788,2.788,0,0,1-.888.9A4.761,4.761,0,0,1-52.3,3.16,7.2,7.2,0,0,1-54.144,3.376Zm.176-7.312a1.027,1.027,0,0,0,.776-.328,1.4,1.4,0,0,0,.312-1,1.33,1.33,0,0,0-.312-.952,1.027,1.027,0,0,0-.776-.328,1.04,1.04,0,0,0-.776.32,1.325,1.325,0,0,0-.312.96,1.4,1.4,0,0,0,.312,1A1.027,1.027,0,0,0-53.968-3.936Zm.192,5.84a2.718,2.718,0,0,0,1.312-.28.811.811,0,0,0,.512-.7.487.487,0,0,0-.312-.5,2.482,2.482,0,0,0-.9-.128h-.816Q-54.4.3-54.656.28A3.032,3.032,0,0,1-55.1.208a1.075,1.075,0,0,0-.432.784.733.733,0,0,0,.48.68A2.969,2.969,0,0,0-53.776,1.9ZM-48.432,0V-7.936h1.92l.16,1.008h.064a6.4,6.4,0,0,1,1.12-.84,2.743,2.743,0,0,1,1.424-.36,2.12,2.12,0,0,1,1.88.848,4.1,4.1,0,0,1,.584,2.352V0h-2.352V-4.624a2.145,2.145,0,0,0-.232-1.184.857.857,0,0,0-.744-.32,1.42,1.42,0,0,0-.768.2,4.5,4.5,0,0,0-.7.568V0Zm12.7.192a4.418,4.418,0,0,1-1.584-.28A3.65,3.65,0,0,1-38.592-.9a3.731,3.731,0,0,1-.848-1.3,4.755,4.755,0,0,1-.3-1.76,4.515,4.515,0,0,1,.32-1.736,4.108,4.108,0,0,1,.84-1.312,3.651,3.651,0,0,1,1.192-.824A3.5,3.5,0,0,1-36-8.128a3.54,3.54,0,0,1,1.48.288,2.923,2.923,0,0,1,1.056.8,3.392,3.392,0,0,1,.632,1.208,5.26,5.26,0,0,1,.208,1.512,5.511,5.511,0,0,1-.032.608q-.032.288-.064.432h-4.752a1.943,1.943,0,0,0,.712,1.272,2.211,2.211,0,0,0,1.352.408A3.266,3.266,0,0,0-33.7-2.128L-32.912-.7a5.212,5.212,0,0,1-1.352.656A4.751,4.751,0,0,1-35.728.192Zm-1.76-5.024h2.864a1.8,1.8,0,0,0-.3-1.088,1.184,1.184,0,0,0-1.024-.416,1.456,1.456,0,0,0-.984.368A1.849,1.849,0,0,0-37.488-4.832ZM-28.16.192A3.048,3.048,0,0,1-29.5-.1,2.883,2.883,0,0,1-30.52-.92a3.891,3.891,0,0,1-.656-1.3,6.03,6.03,0,0,1-.232-1.744,5.07,5.07,0,0,1,.28-1.744,4.221,4.221,0,0,1,.736-1.3,3.192,3.192,0,0,1,1.056-.824,2.8,2.8,0,0,1,1.224-.288,2.391,2.391,0,0,1,1.1.224,3.918,3.918,0,0,1,.848.608l-.1-1.216v-2.7H-23.9V0h-1.92l-.16-.784h-.064a3.721,3.721,0,0,1-.976.7A2.516,2.516,0,0,1-28.16.192Zm.608-1.92a1.5,1.5,0,0,0,.7-.16,1.766,1.766,0,0,0,.6-.56V-5.7a1.876,1.876,0,0,0-.656-.4,2.068,2.068,0,0,0-.656-.112,1.256,1.256,0,0,0-.992.536A2.648,2.648,0,0,0-28.992-4a3.1,3.1,0,0,0,.376,1.728A1.218,1.218,0,0,0-27.552-1.728ZM-16.24.192a2.12,2.12,0,0,1-1.88-.848A4.1,4.1,0,0,1-18.7-3.008V-7.936h2.352v4.624a2.086,2.086,0,0,0,.24,1.184.879.879,0,0,0,.752.32,1.3,1.3,0,0,0,.752-.208,3.03,3.03,0,0,0,.656-.672V-7.936H-11.6V0h-1.92L-13.7-1.1h-.048a4.3,4.3,0,0,1-1.1.952A2.711,2.711,0,0,1-16.24.192Zm6.7,2.752V-7.936h1.92l.16.784h.064a4.426,4.426,0,0,1,1.048-.7,2.763,2.763,0,0,1,1.208-.28,2.858,2.858,0,0,1,1.3.288,2.761,2.761,0,0,1,.976.816,3.871,3.871,0,0,1,.616,1.272A5.93,5.93,0,0,1-2.032-4.1a5.434,5.434,0,0,1-.28,1.816A4.2,4.2,0,0,1-3.064-.936,3.268,3.268,0,0,1-4.136-.1a2.834,2.834,0,0,1-1.24.288,2.393,2.393,0,0,1-.992-.216,3.168,3.168,0,0,1-.9-.616l.08,1.264v2.32ZM-5.92-1.728A1.285,1.285,0,0,0-4.88-2.28a2.913,2.913,0,0,0,.432-1.784q0-2.144-1.376-2.144a1.9,1.9,0,0,0-1.36.72V-2.24a1.92,1.92,0,0,0,.64.4A1.883,1.883,0,0,0-5.92-1.728ZM3.712,3.1a4.126,4.126,0,0,1-.624-.04,3.059,3.059,0,0,1-.5-.12l.416-1.792q.112.032.256.064a1.256,1.256,0,0,0,.272.032A1.318,1.318,0,0,0,4.448.96a1.76,1.76,0,0,0,.48-.752L5.04-.208,1.984-7.936H4.352L5.488-4.528q.176.544.32,1.1t.3,1.152h.064Q6.3-2.832,6.44-3.4t.28-1.128l.96-3.408H9.936L7.184.08a10.708,10.708,0,0,1-.6,1.32,3.674,3.674,0,0,1-.72.944,2.775,2.775,0,0,1-.928.568A3.532,3.532,0,0,1,3.712,3.1ZM14.592.192a4.418,4.418,0,0,1-1.584-.28A3.65,3.65,0,0,1,11.728-.9a3.731,3.731,0,0,1-.848-1.3,4.755,4.755,0,0,1-.3-1.76A4.515,4.515,0,0,1,10.9-5.7a4.108,4.108,0,0,1,.84-1.312,3.651,3.651,0,0,1,1.192-.824,3.5,3.5,0,0,1,1.392-.288,3.54,3.54,0,0,1,1.48.288,2.923,2.923,0,0,1,1.056.8,3.392,3.392,0,0,1,.632,1.208A5.26,5.26,0,0,1,17.7-4.32a5.511,5.511,0,0,1-.032.608q-.032.288-.064.432H12.848a1.943,1.943,0,0,0,.712,1.272,2.211,2.211,0,0,0,1.352.408,3.266,3.266,0,0,0,1.712-.528L17.408-.7a5.212,5.212,0,0,1-1.352.656A4.751,4.751,0,0,1,14.592.192Zm-1.76-5.024H15.7a1.8,1.8,0,0,0-.3-1.088,1.184,1.184,0,0,0-1.024-.416,1.456,1.456,0,0,0-.984.368A1.849,1.849,0,0,0,12.832-4.832ZM21.664.192a4.63,4.63,0,0,1-1.608-.3,4.959,4.959,0,0,1-1.432-.8L19.68-2.384a4.788,4.788,0,0,0,1.04.624,2.585,2.585,0,0,0,1.008.208,1.316,1.316,0,0,0,.768-.176.579.579,0,0,0,.24-.5.5.5,0,0,0-.136-.344,1.388,1.388,0,0,0-.368-.28,3.625,3.625,0,0,0-.52-.232q-.288-.1-.592-.232a7.5,7.5,0,0,1-.736-.336,3.113,3.113,0,0,1-.672-.472,2.315,2.315,0,0,1-.5-.656,1.892,1.892,0,0,1-.192-.872,2.359,2.359,0,0,1,.216-1.008,2.157,2.157,0,0,1,.616-.784,3.038,3.038,0,0,1,.96-.5,3.983,3.983,0,0,1,1.248-.184,3.841,3.841,0,0,1,1.6.312,6.4,6.4,0,0,1,1.2.7L23.808-5.712a4.159,4.159,0,0,0-.848-.5,2.121,2.121,0,0,0-.832-.176q-.9,0-.9.624a.461.461,0,0,0,.128.328,1.271,1.271,0,0,0,.344.248,4.442,4.442,0,0,0,.5.216l.584.216q.384.144.76.328a3.147,3.147,0,0,1,.688.456,2.087,2.087,0,0,1,.5.664,2.108,2.108,0,0,1,.192.936A2.436,2.436,0,0,1,24.72-1.36a2.219,2.219,0,0,1-.624.808,3.116,3.116,0,0,1-1.024.544A4.508,4.508,0,0,1,21.664.192Zm7.488,0A3.167,3.167,0,0,1,27.9-.032a2.2,2.2,0,0,1-.848-.624,2.539,2.539,0,0,1-.48-.968,4.854,4.854,0,0,1-.152-1.256V-6.1H25.328V-7.84l1.216-.1.272-2.112h1.952v2.112h1.9V-6.1h-1.9v3.184a1.381,1.381,0,0,0,.28.968.976.976,0,0,0,.744.3,1.676,1.676,0,0,0,.392-.048,2.615,2.615,0,0,0,.36-.112L30.912-.1q-.32.1-.752.192A4.687,4.687,0,0,1,29.152.192Zm6.336,0A4.418,4.418,0,0,1,33.9-.088,3.65,3.65,0,0,1,32.624-.9a3.731,3.731,0,0,1-.848-1.3,4.755,4.755,0,0,1-.3-1.76,4.515,4.515,0,0,1,.32-1.736,4.108,4.108,0,0,1,.84-1.312,3.651,3.651,0,0,1,1.192-.824,3.5,3.5,0,0,1,1.392-.288,3.54,3.54,0,0,1,1.48.288,2.923,2.923,0,0,1,1.056.8,3.392,3.392,0,0,1,.632,1.208,5.26,5.26,0,0,1,.208,1.512,5.511,5.511,0,0,1-.032.608q-.032.288-.064.432H33.744a1.943,1.943,0,0,0,.712,1.272,2.211,2.211,0,0,0,1.352.408,3.266,3.266,0,0,0,1.712-.528L38.3-.7a5.212,5.212,0,0,1-1.352.656A4.751,4.751,0,0,1,35.488.192Zm-1.76-5.024h2.864a1.8,1.8,0,0,0-.3-1.088,1.184,1.184,0,0,0-1.024-.416,1.456,1.456,0,0,0-.984.368A1.849,1.849,0,0,0,33.728-4.832ZM40.224,0V-7.936h1.92l.16,1.392h.064a3.07,3.07,0,0,1,1.04-1.2,2.262,2.262,0,0,1,1.216-.384,3.124,3.124,0,0,1,.552.04,1.687,1.687,0,0,1,.392.12l-.384,2.032a3.8,3.8,0,0,0-.416-.1,2.757,2.757,0,0,0-.448-.032,1.716,1.716,0,0,0-.936.32,2.316,2.316,0,0,0-.808,1.136V0Zm9.04.192A3.048,3.048,0,0,1,47.928-.1,2.883,2.883,0,0,1,46.9-.92a3.891,3.891,0,0,1-.656-1.3,6.03,6.03,0,0,1-.232-1.744,5.07,5.07,0,0,1,.28-1.744,4.221,4.221,0,0,1,.736-1.3,3.192,3.192,0,0,1,1.056-.824,2.8,2.8,0,0,1,1.224-.288,2.391,2.391,0,0,1,1.1.224,3.918,3.918,0,0,1,.848.608l-.1-1.216v-2.7H53.52V0H51.6l-.16-.784h-.064a3.721,3.721,0,0,1-.976.7A2.516,2.516,0,0,1,49.264.192Zm.608-1.92a1.5,1.5,0,0,0,.7-.16,1.766,1.766,0,0,0,.6-.56V-5.7a1.876,1.876,0,0,0-.656-.4,2.068,2.068,0,0,0-.656-.112,1.256,1.256,0,0,0-.992.536A2.648,2.648,0,0,0,48.432-4a3.1,3.1,0,0,0,.376,1.728A1.218,1.218,0,0,0,49.872-1.728ZM57.6.192a2.528,2.528,0,0,1-.984-.184A2.108,2.108,0,0,1,55.872-.5a2.37,2.37,0,0,1-.472-.76,2.583,2.583,0,0,1-.168-.944A2.222,2.222,0,0,1,56.288-4.16,7.789,7.789,0,0,1,59.7-5.1a1.338,1.338,0,0,0-.312-.84,1.207,1.207,0,0,0-.936-.312,2.835,2.835,0,0,0-1.016.192,7.384,7.384,0,0,0-1.08.528L55.5-7.088a8.319,8.319,0,0,1,1.608-.752A5.463,5.463,0,0,1,58.9-8.128a3.038,3.038,0,0,1,2.344.872,3.888,3.888,0,0,1,.808,2.712V0h-1.92l-.16-.816H59.9a5.078,5.078,0,0,1-1.072.728A2.716,2.716,0,0,1,57.6.192Zm.8-1.824a1.294,1.294,0,0,0,.688-.176,3.363,3.363,0,0,0,.608-.5V-3.7a4.26,4.26,0,0,0-1.728.512.967.967,0,0,0-.48.8.661.661,0,0,0,.248.568A1.089,1.089,0,0,0,58.4-1.632ZM64.912,3.1a4.126,4.126,0,0,1-.624-.04,3.059,3.059,0,0,1-.5-.12l.416-1.792q.112.032.256.064a1.256,1.256,0,0,0,.272.032A1.318,1.318,0,0,0,65.648.96a1.76,1.76,0,0,0,.48-.752l.112-.416L63.184-7.936h2.368l1.136,3.408q.176.544.32,1.1t.3,1.152h.064q.128-.56.264-1.128t.28-1.128l.96-3.408h2.256L68.384.08a10.707,10.707,0,0,1-.6,1.32,3.674,3.674,0,0,1-.72.944,2.775,2.775,0,0,1-.928.568A3.532,3.532,0,0,1,64.912,3.1Z" transform="translate(436.195 453)" fill="#322f3b"/><g transform="translate(339.195 437)" opacity="0.399"><path d="M8,9A3,3,0,1,0,5,6,3,3,0,0,0,8,9Z" fill="#322f3b"/><path d="M8,11a6,6,0,0,1,6,6H2A6,6,0,0,1,8,11Z" fill="#322f3b"/><path d="M16,7a1,1,0,0,0-2,0V8H13a1,1,0,0,0,0,2h1v1a1,1,0,0,0,2,0V10h1a1,1,0,0,0,0-2H16Z" fill="#322f3b"/></g></g></g></svg>