<?xml version="1.0" encoding="UTF-8"?>
<svg width="29px" height="20px" viewBox="0 0 29 20" version="1.1" xmlns="http://www.w3.org/2000/svg" xmlns:xlink="http://www.w3.org/1999/xlink">
    <!-- Generator: Sketch 64 (93537) - https://sketch.com -->
    <title>Artboard</title>
    <desc>Created with Sketch.</desc>
    <g id="Artboard" stroke="none" stroke-width="1" fill="none" fill-rule="evenodd">
        <g id="sm-creditcard" transform="translate(4.000000, 2.000000)" fill="#B7BBC3" fill-rule="nonzero">
            <path d="M2.8,0.8 C1.474516,0.8 0.4,1.874516 0.4,3.2 L0.4,4.4 L19.6,4.4 L19.6,3.2 C19.6,1.874516 18.52552,0.8 17.2,0.8 L2.8,0.8 Z" id="Path"></path>
            <path d="M19.6,6.8 L0.4,6.8 L0.4,12.8 C0.4,14.12552 1.474516,15.2 2.8,15.2 L17.2,15.2 C18.52552,15.2 19.6,14.12552 19.6,12.8 L19.6,6.8 Z M2.8,11.6 C2.8,10.93724 3.337264,10.4 4,10.4 L5.2,10.4 C5.862736,10.4 6.4,10.93724 6.4,11.6 C6.4,12.26276 5.862736,12.8 5.2,12.8 L4,12.8 C3.337264,12.8 2.8,12.26276 2.8,11.6 Z M8.8,10.4 C8.137264,10.4 7.6,10.93724 7.6,11.6 C7.6,12.26276 8.137264,12.8 8.8,12.8 L10,12.8 C10.66276,12.8 11.2,12.26276 11.2,11.6 C11.2,10.93724 10.66276,10.4 10,10.4 L8.8,10.4 Z" id="Shape"></path>
        </g>
    </g>
</svg>