<?xml version="1.0" encoding="UTF-8"?><svg width="24" height="24" version="1.1" viewBox="0 0 24 24" xmlns="http://www.w3.org/2000/svg" xmlns:xlink="http://www.w3.org/1999/xlink"><!--Generated by IJSVG (https://github.com/iconjar/IJSVG)--><path d="M18,10c0,4.4183 -3.5817,8 -8,8c-4.41828,0 -8,-3.5817 -8,-8c0,-4.41828 3.58172,-8 8,-8c4.4183,0 8,3.58172 8,8Zm-8,-3c-0.36887,0 -0.6924,0.19922 -0.86682,0.50073c-0.27654,0.47806 -0.88827,0.64142 -1.36633,0.36488c-0.47806,-0.27655 -0.64142,-0.88828 -0.36488,-1.36634c0.51721,-0.89409 1.48636,-1.49927 2.59803,-1.49927c1.6569,0 3,1.34315 3,3c0,1.30622 -0.8348,2.4175 -2,2.8293v0.1707c0,0.5523 -0.4477,1 -1,1c-0.55227,0 -0.99999,-0.4477 -0.99999,-1v-1c0,-0.55228 0.44772,-1 0.99999,-1c0.5523,0 1,-0.44772 1,-1c0,-0.55228 -0.4477,-1 -1,-1Zm0,8c0.5523,0 1,-0.4477 1,-1c0,-0.5523 -0.4477,-1 -1,-1c-0.55228,0 -1,0.4477 -1,1c0,0.5523 0.44772,1 1,1Z" transform="scale(1.2)" fill-rule="evenodd" fill="#B7BBC3"></path></svg>