<svg xmlns="http://www.w3.org/2000/svg" width="414" height="70" viewBox="0 0 414 70">
  <g id="trustpilot-rating" transform="translate(-97 -474)">
    <g id="Group_11" data-name="Group 11">
      <rect id="Rectangle_35" data-name="Rectangle 35" width="70" height="70" rx="16" transform="translate(97 474)" fill="#00cb00"/>
      <path id="Icon_awesome-star" data-name="Icon awesome-star" d="M18.232,1.252l-4.591,9.309-10.273,1.5A2.251,2.251,0,0,0,2.123,15.9L9.555,23.14,7.8,33.37a2.249,2.249,0,0,0,3.262,2.37l9.19-4.83,9.19,4.83A2.25,2.25,0,0,0,32.7,33.37L30.945,23.14,38.377,15.9a2.251,2.251,0,0,0-1.245-3.839l-10.273-1.5L22.268,1.252a2.252,2.252,0,0,0-4.036,0Z" transform="translate(111.559 491.001)" fill="#fff"/>
    </g>
    <g id="Group_12" data-name="Group 12">
      <rect id="Rectangle_36" data-name="Rectangle 36" width="70" height="70" rx="16" transform="translate(183 474)" fill="#00cb00"/>
      <path id="Icon_awesome-star-2" data-name="Icon awesome-star" d="M18.232,1.252l-4.591,9.309-10.273,1.5A2.251,2.251,0,0,0,2.123,15.9L9.555,23.14,7.8,33.37a2.249,2.249,0,0,0,3.262,2.37l9.19-4.83,9.19,4.83A2.25,2.25,0,0,0,32.7,33.37L30.945,23.14,38.377,15.9a2.251,2.251,0,0,0-1.245-3.839l-10.273-1.5L22.268,1.252a2.252,2.252,0,0,0-4.036,0Z" transform="translate(197.559 491.001)" fill="#fff"/>
    </g>
    <g id="Group_13" data-name="Group 13" transform="translate(86)">
      <rect id="Rectangle_36-2" data-name="Rectangle 36" width="70" height="70" rx="16" transform="translate(183 474)" fill="#00cb00"/>
      <path id="Icon_awesome-star-3" data-name="Icon awesome-star" d="M18.232,1.252l-4.591,9.309-10.273,1.5A2.251,2.251,0,0,0,2.123,15.9L9.555,23.14,7.8,33.37a2.249,2.249,0,0,0,3.262,2.37l9.19-4.83,9.19,4.83A2.25,2.25,0,0,0,32.7,33.37L30.945,23.14,38.377,15.9a2.251,2.251,0,0,0-1.245-3.839l-10.273-1.5L22.268,1.252a2.252,2.252,0,0,0-4.036,0Z" transform="translate(197.559 491.001)" fill="#fff"/>
    </g>
    <g id="Group_14" data-name="Group 14" transform="translate(172)">
      <rect id="Rectangle_36-3" data-name="Rectangle 36" width="70" height="70" rx="16" transform="translate(183 474)" fill="#00cb00"/>
      <path id="Icon_awesome-star-4" data-name="Icon awesome-star" d="M18.232,1.252l-4.591,9.309-10.273,1.5A2.251,2.251,0,0,0,2.123,15.9L9.555,23.14,7.8,33.37a2.249,2.249,0,0,0,3.262,2.37l9.19-4.83,9.19,4.83A2.25,2.25,0,0,0,32.7,33.37L30.945,23.14,38.377,15.9a2.251,2.251,0,0,0-1.245-3.839l-10.273-1.5L22.268,1.252a2.252,2.252,0,0,0-4.036,0Z" transform="translate(197.559 491.001)" fill="#fff"/>
    </g>
    <g id="Group_15" data-name="Group 15" transform="translate(258)">
      <rect id="Rectangle_36-4" data-name="Rectangle 36" width="70" height="70" rx="16" transform="translate(183 474)" fill="#00cb00"/>
      <path id="Icon_awesome-star-5" data-name="Icon awesome-star" d="M18.232,1.252l-4.591,9.309-10.273,1.5A2.251,2.251,0,0,0,2.123,15.9L9.555,23.14,7.8,33.37a2.249,2.249,0,0,0,3.262,2.37l9.19-4.83,9.19,4.83A2.25,2.25,0,0,0,32.7,33.37L30.945,23.14,38.377,15.9a2.251,2.251,0,0,0-1.245-3.839l-10.273-1.5L22.268,1.252a2.252,2.252,0,0,0-4.036,0Z" transform="translate(197.559 491.001)" fill="#fff"/>
    </g>
  </g>
</svg>
